<?xml version="1.0" standalone="no"?>
<!DOCTYPE svg PUBLIC "-//W3C//DTD SVG 20010904//EN"
 "http://www.w3.org/TR/2001/REC-SVG-20010904/DTD/svg10.dtd">
<svg version="1.0" xmlns="http://www.w3.org/2000/svg"
 width="256.000000pt" height="256.000000pt" viewBox="0 0 256.000000 256.000000"
 preserveAspectRatio="xMidYMid meet">
<metadata>
Created by potrace 1.11, written by Peter Selinger 2001-2013
</metadata>
<g transform="translate(0.000000,256.000000) scale(0.100000,-0.100000)"
fill="#000000" stroke="none">
<path d="M1920 2372 c-36 -11 -40 -32 -40 -224 l0 -188 -257 -1 c-305 -1 -314
-1 -422 -35 -198 -63 -365 -227 -430 -420 -24 -72 -29 -99 -36 -184 -10 -115
-15 -162 -20 -170 -2 -3 -6 -20 -9 -36 -17 -93 -134 -247 -240 -316 -105 -67
-182 -88 -360 -93 -82 -2 -106 -15 -106 -54 1 -42 14 -46 152 -45 114 2 144 6
209 27 210 71 379 240 442 442 18 58 25 103 32 200 9 121 24 185 62 260 76
150 212 259 376 302 49 13 118 16 335 17 l272 2 0 -192 c0 -207 4 -224 53
-224 33 0 610 422 622 454 7 22 5 30 -15 50 -31 30 -570 420 -590 428 -8 3
-22 3 -30 0z"/>
<path d="M17 1942 c-20 -22 -22 -42 -4 -66 11 -15 32 -19 122 -22 158 -6 254
-37 370 -119 60 -42 76 -45 107 -18 36 32 -2 82 -112 147 -110 64 -224 93
-376 95 -76 2 -93 -1 -107 -17z"/>
<path d="M1897 1102 c-14 -15 -17 -49 -19 -208 l-3 -189 -240 1 c-132 0 -265
3 -295 7 -101 11 -196 50 -279 113 -52 40 -85 43 -106 10 -20 -31 -10 -52 42
-93 60 -47 122 -80 205 -107 95 -32 115 -34 426 -35 l252 -1 0 -190 c0 -175 2
-192 20 -210 10 -10 28 -17 39 -15 15 3 266 178 341 238 8 7 56 41 105 76 192
137 201 150 143 201 -18 16 -127 97 -243 181 -366 265 -354 259 -388 221z"/>
</g>
</svg>
